<?xml version="1.0" encoding="iso-8859-1"?>
<svg xmlns="http://www.w3.org/2000/svg" xmlns:xlink="http://www.w3.org/1999/xlink" version="1.1" viewBox="0 0 390 470" enable-background="new 0 0 470 470">
    <g>
        <path d="m215.419,235c0-11.028-8.972-20-20-20s-20,8.972-20,20 8.972,20 20,20 20-8.972 20-20zm-25,0c0-2.757 2.243-5 5-5s5,2.243 5,5-2.243,5-5,5-5-2.243-5-5z"/>
        <path d="M312.415,118.004c-31.227-31.226-72.776-48.423-116.996-48.423s-85.77,17.197-116.995,48.423   C47.197,149.231,30,190.781,30,235c0,44.22,17.197,85.77,48.424,116.996c31.226,31.227,72.775,48.424,116.995,48.424   s85.77-17.197,116.996-48.423c31.227-31.227,48.424-72.777,48.424-116.996S343.642,149.231,312.415,118.004z M195.419,385.419   C112.478,385.419,45,317.941,45,235S112.478,84.581,195.419,84.581S345.839,152.058,345.839,235S278.36,385.419,195.419,385.419z"/>
        <path d="m321.895,227.5c-4.143,0-7.5,3.358-7.5,7.5 0,65.604-53.372,118.976-118.976,118.976-4.143,0-7.5,3.358-7.5,7.5s3.357,7.5 7.5,7.5c73.874,0 133.976-60.102 133.976-133.976 0-4.142-3.358-7.5-7.5-7.5z"/>
        <path d="m195.419,147.468c4.143,0 7.5-3.358 7.5-7.5s-3.357-7.5-7.5-7.5c-56.536,0-102.532,45.996-102.532,102.532 0,4.142 3.357,7.5 7.5,7.5s7.5-3.358 7.5-7.5c-1.42109e-14-48.266 39.266-87.532 87.532-87.532z"/>
        <path d="m195.419,322.532c-4.143,0-7.5,3.358-7.5,7.5s3.357,7.5 7.5,7.5c56.536,0 102.532-45.996 102.532-102.533 0-4.142-3.357-7.5-7.5-7.5s-7.5,3.358-7.5,7.5c0,48.266-39.266,87.533-87.532,87.533z"/>
        <path d="m266.508,235c0-39.198-31.891-71.088-71.089-71.088s-71.089,31.89-71.089,71.088c0,39.199 31.891,71.089 71.089,71.089s71.089-31.891 71.089-71.089zm-127.178,0c0-30.927 25.161-56.088 56.089-56.088s56.089,25.161 56.089,56.088c0,30.928-25.161,56.089-56.089,56.089s-56.089-25.162-56.089-56.089z"/>


        <path d="m117.207,143.07c1.624,0 3.26-0.525 4.635-1.608 21.135-16.642 46.577-25.438 73.577-25.438 4.143,0 7.5-3.358 7.5-7.5s-3.357-7.5-7.5-7.5c-30.4,0-59.052,9.908-82.856,28.653-3.255,2.563-3.815,7.278-1.253,10.532 1.48,1.88 3.677,2.861 5.897,2.861z"/>
        <path d="m100.628,150.89c-3.254-2.562-7.971-2.001-10.532,1.253-18.744,23.806-28.653,52.457-28.653,82.857 0,4.142 3.357,7.5 7.5,7.5s7.5-3.358 7.5-7.5c0-27 8.796-52.442 25.438-73.577 2.562-3.255 2.002-7.97-1.253-10.533z"/>
    </g>
</svg>