<?xml version="1.0" encoding="iso-8859-1"?>
<!-- Generator: Adobe Illustrator 19.0.0, SVG Export Plug-In . SVG Version: 6.00 Build 0)  -->
<svg xmlns="http://www.w3.org/2000/svg" version="1.1" viewBox="0 0 470 470" enable-background="new 0 0 470 470">
    <g>
        <path d="m432.5,69.581c-4.143,0-7.5,3.358-7.5,7.5v42.5h-35v-42.5c0-4.142-3.357-7.5-7.5-7.5s-7.5,3.358-7.5,7.5v50c0,4.142 3.357,7.5 7.5,7.5h17.5v129.298c0,4.563-1.476,12.29-3.157,16.533l-18.203,45.933-6.971-2.763c-1.85-0.731-3.914-0.701-5.74,0.088-1.825,0.79-3.263,2.272-3.996,4.121l-16.579,41.834c-2.214,5.587-2.12,11.703 0.265,17.219 2.385,5.516 6.775,9.773 12.363,11.988 2.656,1.052 5.443,1.586 8.284,1.586 9.289,0 17.501-5.58 20.923-14.214l16.579-41.834c1.525-3.851-0.358-8.209-4.21-9.736l-6.972-2.763 18.203-45.933c2.361-5.96 4.212-15.65 4.212-22.06v-129.297h17.5c4.143,0 7.5-3.358 7.5-7.5v-50c-0.001-4.142-3.358-7.5-7.501-7.5zm-59.258,311.098c-1.141,2.88-3.879,4.74-6.976,4.74-0.941,0-1.87-0.179-2.76-0.531-1.862-0.738-3.326-2.158-4.121-3.996-0.795-1.839-0.826-3.877-0.088-5.74l13.815-34.862 6.969,2.762c0.005,0.002 6.976,2.764 6.976,2.764l-13.815,34.863z"/>
    </g>
</svg>
