<?xml version="1.0" encoding="iso-8859-1"?>
<svg xmlns="http://www.w3.org/2000/svg" version="1.1" viewBox="0 0 470 470" enable-background="new 0 0 470 470">
    <g>

        <path d="m432.5,39.581h-395c-20.678,0-37.5,16.822-37.5,37.5v315.838c0,20.678 16.822,37.5 37.5,37.5h395c20.678,0 37.5-16.822 37.5-37.5v-315.838c0-20.678-16.822-37.5-37.5-37.5zm22.5,353.338c0,12.407-10.094,22.5-22.5,22.5h-395c-12.406,0-22.5-10.093-22.5-22.5v-315.838c0-12.407 10.094-22.5 22.5-22.5h395c12.406,0 22.5,10.093 22.5,22.5v315.838z"/>


    </g>
</svg>